<?xml version="1.0" encoding="UTF-8"?> <svg xmlns="http://www.w3.org/2000/svg" xmlns:xlink="http://www.w3.org/1999/xlink" width="960" height="509.281" viewBox="0 0 960 509.281"><defs><style>.a,.ac,.ae,.o,.t,.w,.y{fill:none;}.b{fill:#f16f84;}.c{fill:#363280;}.d{fill:#504bbf;}.e{fill:#9691cc;}.f,.p{fill:#fff;}.g{fill:#bf4c63;}.h{fill:#6c63ff;}.i,.k,.n{fill:#ff6584;}.j{fill:#bbb5ff;}.k{opacity:0.42;}.l{fill:#f5d3d3;}.m{fill:#d793cb;}.n{opacity:0.694;}.o{stroke:#3e3d55;}.ac,.o,.t,.y{stroke-miterlimit:10;}.p{opacity:0.174;}.q{fill:#5650cc;}.r{fill:#e6c5c5;}.s{fill:#615ae6;}.t{stroke:#9591c9;}.u{clip-path:url(#a);}.v{fill:#c2bade;}.w{stroke:rgba(0,0,0,0);}.x{fill:#993d50;}.ac,.y{stroke:#231f20;}.z{fill:#6b63ff;}.aa{fill:#3f3d56;}.ab{fill:#231f20;}.ac,.ae{stroke-linecap:round;}.ad{fill:#f8edf6;}.ae{stroke:#9691cc;stroke-linejoin:round;stroke-dasharray:0.998 6;}</style><clipPath id="a"><path class="a" d="M274,407.856l51.089-17.189,50.612,2.865s-5.73,21.486-1.432,64.936l-37.243,34.378-50.612-10.5-9.549-48.7,21.008,1.91-22.441-8.595Z" transform="translate(-274 -390.667)"></path></clipPath></defs><g transform="translate(351.645 -61.141)"><g transform="matrix(0.799, 0.602, -0.602, 0.799, 348.258, 329.117)"><path class="b" d="M92.208,41.4a8.367,8.367,0,0,0-.107-1.261q-.494-4.3-5.147-7.912a42.03,42.03,0,0,0-13.9-6.606,42.016,42.016,0,0,0,1.278-15.49q-.9-6.573-5.055-8.972t-10.33.154a42.724,42.724,0,0,0-12.744,8.807A42.971,42.971,0,0,0,33.4,1.311q-6.146-2.519-10.39-.075-4.147,2.5-5.069,9.114a43.273,43.273,0,0,0,1.141,15.534,54.53,54.53,0,0,0-6.742,2.543,26.594,26.594,0,0,0-9.572,6.563A9.9,9.9,0,0,0,0,41.53q.01,4.9,5.215,8.934a42.031,42.031,0,0,0,13.9,6.606A44.186,44.186,0,0,0,17.88,72.586q.856,6.548,5.01,8.945t10.3-.108A42,42,0,0,0,45.9,72.665a41.432,41.432,0,0,0,12.61,8.5q6.076,2.41,10.263.066,4.09-2.406,5.033-8.944A43.326,43.326,0,0,0,72.8,56.97C84.613,53.569,92.208,47.921,92.208,41.4Zm-88.621,0c0-7.505,17.116-15.541,42.6-15.541S88.777,33.9,88.777,41.4,71.661,56.945,46.182,56.945,3.587,48.91,3.587,41.4Zm55.618-36.4q4.937-2.3,8.124-.46h0q3.187,1.841,3.689,7.217a39.023,39.023,0,0,1-1.4,12.908q-2.96-.675-6.172-1.243t-6.643-.873Q54.772,19.829,52.8,17.34a54,54,0,0,0-4.1-4.618A39.68,39.68,0,0,1,59.205,5.005ZM49,18.564q1.4,1.708,2.827,3.692a27.317,27.317,0,0,0-2.834-.22q-1.4-.033-2.85.029-1.395-.033-2.85.029t-2.811.18h0q1.36-1.914,2.813-3.65T46.14,15.37Q47.6,16.857,49,18.564ZM21.215,11.922q.578-5.462,3.74-7.37,3.258-1.854,8.195.416a38.084,38.084,0,0,1,10.5,7.8,58.431,58.431,0,0,0-4.15,4.623q-2.024,2.5-3.987,5.232-3.573.387-6.805.966t-6.128,1.356A37.436,37.436,0,0,1,21.215,11.922ZM32.93,77.737q-4.908,2.251-8.095.411h0q-3.192-1.839-3.693-7.216a39.043,39.043,0,0,1,1.4-12.908q2.958.677,6.124,1.217t6.443.886q1.98,2.819,4.078,5.318t4.163,4.723A39.008,39.008,0,0,1,32.93,77.737ZM43.014,64.17q-1.493-1.763-2.827-3.692,1.4.032,2.842.1t2.995.057q1.4.033,2.85-.029l2.9-.125q-1.461,1.864-2.94,3.645t-2.926,3.4Q44.506,65.933,43.014,64.17Zm27.493,6.474q-.522,5.365-3.685,7.274h0q-3.107,1.812-8.023-.383a37.356,37.356,0,0,1-10.3-7.364q2.086-2.274,4.185-4.8T56.8,60.027q3.264-.305,6.423-.864c1.338-.237,2.635-.506,3.9-.8q1.1-.226,2.165-.477A40.041,40.041,0,0,1,70.507,70.644Z" transform="translate(0 0)"></path><g transform="translate(25.92 32.098)"><g transform="translate(0 0)"><path class="b" d="M10.326,4.909c0,2.878-1.947,4.91-5.5,4.91H3.28V14.5a.3.3,0,0,1-.318.317H.317A.3.3,0,0,1,0,14.5V.317A.3.3,0,0,1,.317,0H4.825C8.38,0,10.326,2.01,10.326,4.909Zm-3.132,0c0-1.566-1.27-2.01-2.433-2.01H3.28V6.92H4.761C5.925,6.92,7.195,6.475,7.195,4.909Z" transform="translate(0 0.635)"></path><path class="b" d="M.317,0H2.857a.3.3,0,0,1,.317.317V15.13a.3.3,0,0,1-.317.317H.317A.3.3,0,0,1,0,15.13V.317A.3.3,0,0,1,.317,0Z" transform="translate(12.399 0)"></path><path class="b" d="M10.9.529v9.734a.3.3,0,0,1-.317.317H8.422a.311.311,0,0,1-.317-.317l-.128-.889a3.637,3.637,0,0,1-2.962,1.355A5.071,5.071,0,0,1,0,5.417,5.125,5.125,0,0,1,5.015,0,3.657,3.657,0,0,1,8,1.481L8.105.529A.311.311,0,0,1,8.422.212h2.159A.3.3,0,0,1,10.9.529ZM7.724,5.4a2.343,2.343,0,1,0-4.677,0A2.3,2.3,0,0,0,5.4,7.829,2.273,2.273,0,0,0,7.724,5.4Z" transform="translate(17.752 4.867)"></path><path class="b" d="M11.117.36,5.637,14.136a.387.387,0,0,1-.381.253H2.78c-.233,0-.381-.127-.255-.36l1.5-3.639L.029.36C-.055.127.05,0,.283,0h2.56a.386.386,0,0,1,.381.253L5.551,6.644,7.879.253A.387.387,0,0,1,8.26,0h2.6C11.1,0,11.2.127,11.117.36Z" transform="translate(30.631 5.079)"></path></g></g></g><g transform="translate(21.66 271.678)"><path class="c" d="M1676.876,657h0a2.86,2.86,0,0,1,2.859,2.859V761.653a2.86,2.86,0,0,1-2.859,2.859h0a2.859,2.859,0,0,1-2.859-2.859V659.859A2.859,2.859,0,0,1,1676.876,657Z" transform="translate(-1107.91 -465.766)"></path><path class="c" d="M693.1,415.1V548.909l42.891-18.871V433.729Z" transform="translate(-687.955 -362.203)"></path><path class="d" d="M1619.345,657.487h0a2.86,2.86,0,0,1,2.86,2.859v87.5a2.86,2.86,0,0,1-2.86,2.859h0a2.86,2.86,0,0,1-2.859-2.859v-87.5A2.86,2.86,0,0,1,1619.345,657.487Z" transform="translate(-1083.279 -465.975)"></path><rect class="c" width="308.505" height="15.068" rx="7.534" transform="translate(278.19 188.175)"></rect><path class="c" d="M1207,420h4.86a6.863,6.863,0,0,1,6.863,6.862V534.375a6.863,6.863,0,0,1-6.863,6.863H1207V420Z" transform="translate(-907.969 -364.3)"></path><path class="e" d="M770.463,322.6h240.175a6.863,6.863,0,0,1,6.863,6.862V607.38H763.6V329.463A6.863,6.863,0,0,1,770.463,322.6Z" transform="translate(-718.138 -322.601)"></path><path class="c" d="M744.061,819.826h270.371a6.863,6.863,0,0,1,6.863,6.863h0a6.862,6.862,0,0,1-6.863,6.862H744.061a6.863,6.863,0,0,1-6.863-6.862h0A6.863,6.863,0,0,1,744.061,819.826Z" transform="translate(-706.835 -535.477)"></path><path class="e" d="M687.964,409.1h0a3.86,3.86,0,0,1,3.86,3.86v132.1a3.86,3.86,0,0,1-3.86,3.86h0a3.86,3.86,0,0,1-3.86-3.86v-132.1A3.86,3.86,0,0,1,687.964,409.1Z" transform="translate(-684.104 -359.632)"></path><ellipse class="e" cx="6.005" cy="6.005" rx="6.005" ry="6.005" transform="translate(387.11 189.518)"></ellipse><ellipse class="e" cx="6.005" cy="6.005" rx="6.005" ry="6.005" transform="translate(421.422 189.518)"></ellipse><ellipse class="e" cx="6.005" cy="6.005" rx="6.005" ry="6.005" transform="translate(456.879 189.518)"></ellipse><ellipse class="e" cx="6.005" cy="6.005" rx="6.005" ry="6.005" transform="translate(492.907 189.518)"></ellipse><ellipse class="e" cx="6.005" cy="6.005" rx="6.005" ry="6.005" transform="translate(529.793 189.518)"></ellipse><ellipse class="e" cx="6.005" cy="6.005" rx="6.005" ry="6.005" transform="translate(563.819 189.232)"></ellipse><ellipse class="e" cx="6.005" cy="6.005" rx="6.005" ry="6.005" transform="translate(313.338 189.518)"></ellipse><ellipse class="e" cx="6.005" cy="6.005" rx="6.005" ry="6.005" transform="translate(348.794 189.518)"></ellipse></g><g transform="translate(84.492 286.775)"><ellipse class="f" cx="12.68" cy="12.68" rx="12.68" ry="12.68" transform="translate(0.234 24.019)"></ellipse><path class="g" d="M814.439,395.145l-1.659,9.722a1.8,1.8,0,0,0,1.778,2.108h0a1.8,1.8,0,0,0,1.806-1.8,1.7,1.7,0,0,0-.033-.347Z" transform="translate(-802.014 -368.756)"></path><ellipse class="f" cx="12.68" cy="12.68" rx="12.68" ry="12.68" transform="translate(0 52.652)"></ellipse><path class="h" d="M821.481,451.073l-8.05,5.7A1.8,1.8,0,0,0,813,459.29a1.73,1.73,0,0,0,.193.229h0a1.8,1.8,0,0,0,2.552,0,1.839,1.839,0,0,0,.22-.268Z" transform="translate(-801.978 -392.7)"></path><ellipse class="f" cx="12.68" cy="12.68" rx="12.68" ry="12.68" transform="translate(0.011 81.729)"></ellipse><path class="i" d="M803.466,520.162l8.049-5.7a1.8,1.8,0,0,0,.429-2.515,1.771,1.771,0,0,0-.2-.233h0a1.8,1.8,0,0,0-2.772.268Z" transform="translate(-798.037 -418.435)"></path><rect class="f" width="144.685" height="117.328" rx="12" transform="translate(36.044 24.019)"></rect><rect class="j" width="17.853" height="85.209" rx="8.927" transform="translate(190.45 41.747)"></rect><rect class="c" width="144.026" height="16.012" rx="5.693" transform="translate(37.187)"></rect><path class="f" d="M935.2,654.887a38.6,38.6,0,1,0-77.2,0Z" transform="translate(-821.385 -463.31)"></path><path class="g" d="M932.628,631.19l-13.3,17.933c-1.507,2.032-1.691,4.6-.385,5.376h0c1.326.79,3.532-.65,4.58-2.988Z" transform="translate(-847.101 -469.813)"></path><rect class="j" width="57.759" height="40.212" rx="8.287" transform="translate(123.541 151.366)"></rect><ellipse class="k" cx="3.186" cy="3.186" rx="3.186" ry="3.186" transform="translate(128.487 181.113)"></ellipse><ellipse class="k" cx="3.186" cy="3.186" rx="3.186" ry="3.186" transform="translate(138.754 181.201)"></ellipse><ellipse class="i" cx="3.186" cy="3.186" rx="3.186" ry="3.186" transform="translate(149.198 181.113)"></ellipse><ellipse class="i" cx="3.186" cy="3.186" rx="3.186" ry="3.186" transform="translate(159.466 181.201)"></ellipse><ellipse class="k" cx="3.186" cy="3.186" rx="3.186" ry="3.186" transform="translate(169.758 181.021)"></ellipse><ellipse class="k" cx="3.186" cy="3.186" rx="3.186" ry="3.186" transform="translate(128.354 172.085)"></ellipse><ellipse class="i" cx="3.186" cy="3.186" rx="3.186" ry="3.186" transform="translate(138.622 172.173)"></ellipse><ellipse class="k" cx="3.186" cy="3.186" rx="3.186" ry="3.186" transform="translate(149.066 172.085)"></ellipse><ellipse class="k" cx="3.186" cy="3.186" rx="3.186" ry="3.186" transform="translate(159.333 172.173)"></ellipse><ellipse class="i" cx="3.186" cy="3.186" rx="3.186" ry="3.186" transform="translate(169.625 171.993)"></ellipse><ellipse class="i" cx="3.186" cy="3.186" rx="3.186" ry="3.186" transform="translate(128.487 164.384)"></ellipse><ellipse class="k" cx="3.186" cy="3.186" rx="3.186" ry="3.186" transform="translate(138.754 164.473)"></ellipse><ellipse class="i" cx="3.186" cy="3.186" rx="3.186" ry="3.186" transform="translate(149.198 164.384)"></ellipse><ellipse class="i" cx="3.186" cy="3.186" rx="3.186" ry="3.186" transform="translate(159.466 164.473)"></ellipse><ellipse class="i" cx="3.186" cy="3.186" rx="3.186" ry="3.186" transform="translate(169.758 164.292)"></ellipse><ellipse class="k" cx="3.186" cy="3.186" rx="3.186" ry="3.186" transform="translate(128.354 155.356)"></ellipse><ellipse class="i" cx="3.186" cy="3.186" rx="3.186" ry="3.186" transform="translate(138.622 155.445)"></ellipse><ellipse class="k" cx="3.186" cy="3.186" rx="3.186" ry="3.186" transform="translate(149.066 155.356)"></ellipse><ellipse class="i" cx="3.186" cy="3.186" rx="3.186" ry="3.186" transform="translate(159.333 155.445)"></ellipse><ellipse class="k" cx="3.186" cy="3.186" rx="3.186" ry="3.186" transform="translate(169.625 155.263)"></ellipse><ellipse class="l" cx="5.147" cy="5.147" rx="5.147" ry="5.147" transform="translate(194.453 48.609)"></ellipse><ellipse class="l" cx="5.147" cy="5.147" rx="5.147" ry="5.147" transform="translate(194.552 62.702)"></ellipse><ellipse class="l" cx="5.147" cy="5.147" rx="5.147" ry="5.147" transform="translate(194.596 76.631)"></ellipse><ellipse class="l" cx="5.147" cy="5.147" rx="5.147" ry="5.147" transform="translate(194.525 90.642)"></ellipse><ellipse class="l" cx="5.147" cy="5.147" rx="5.147" ry="5.147" transform="translate(194.596 105.082)"></ellipse><path class="m" d="M20.276,5.467A40.018,40.018,0,0,1,40.764,0,39.876,39.876,0,0,1,61.225,5.467,40.581,40.581,0,0,1,76.061,20.3a39.876,39.876,0,0,1,5.467,20.462,39.876,39.876,0,0,1-5.467,20.462A40.581,40.581,0,0,1,61.225,76.061a39.876,39.876,0,0,1-20.462,5.467A39.876,39.876,0,0,1,20.3,76.061,40.581,40.581,0,0,1,5.467,61.225,39.876,39.876,0,0,1,0,40.764,39.876,39.876,0,0,1,5.467,20.3,40.643,40.643,0,0,1,20.276,5.467Zm40.87,38.216a3.358,3.358,0,0,0,0-5.839L32.271,20.86a3.182,3.182,0,0,0-3.4-.053,3.251,3.251,0,0,0-1.7,2.972v33.97a3.251,3.251,0,0,0,1.7,2.972,3.769,3.769,0,0,0,1.7.425,3.247,3.247,0,0,0,1.7-.478Z" transform="translate(67.538 44.008)"></path></g><g transform="translate(164.828 211.287)"><path class="n" d="M961.031,281.564l-5.056-26.546A15.933,15.933,0,0,1,971.628,236.1h0a15.934,15.934,0,0,1,15.581,19.272L981.6,281.56Z" transform="translate(-943.544 -225.177)"></path><path class="o" d="M973.056,288.47s-.3-29.909-6.184-28.314c-4.6,1.244-.693,8.64,5.053,6.934,6.386-1.9,6.927-4.477,6.1-7.612-.736-2.772-4.452-2.546-5.235.4-.965,3.636,1.844,7.114,7.087,7.184,4.231.057,6.494-3.558,4.944-6.119-1.4-2.317-3.926-1.677-4.208.972-.62,5.819-1.94,20.066-1.8,26.812" transform="translate(-947.465 -234.351)"></path><path class="c" d="M954.952,311.1h29.164a3.86,3.86,0,0,1,3.86,3.86h0a3.86,3.86,0,0,1-3.86,3.86H954.952a3.86,3.86,0,0,1-3.861-3.86h0A3.86,3.86,0,0,1,954.952,311.1Z" transform="translate(-941.576 -257.286)"></path><ellipse class="p" cx="6.857" cy="9.445" rx="6.857" ry="9.445" transform="translate(20.546 23.722) rotate(-58.374)"></ellipse><path class="c" d="M353.067,938.792l-5.7-.508c0-.054.05-.545.179-1.348l5.646.908C353.1,938.441,353.067,938.789,353.067,938.792Zm44.657-.995q0-.5-.022-1.035l5.715-.231c.017.43.026.848.026,1.254Zm-41.11-9.758-4.969-2.831q.31-.544.649-1.085l4.845,3.038Q356.864,927.6,356.614,928.039Zm38.507-.894q-.241-.417-.512-.825l4.767-3.16c.241.365.475.74.694,1.118Zm-30.892-6.867-2.771-5q.561-.311,1.151-.6l2.5,5.145Q364.656,920.042,364.228,920.279Zm22.9-.086q-.455-.2-.936-.39l2.082-5.326q.6.236,1.174.489ZM375.967,917.8q-.532-.019-1.047-.022l.022-5.719q.61,0,1.24.026Z" transform="translate(-347.37 -912.06)"></path></g><g transform="translate(-351.645 156.8)"><path class="q" d="M208.5,437.9l8.821-5.687a18.592,18.592,0,0,1,22.966,2.2c9.713,9.359,25.5,22.872,43.234,31.418l-13.25,17.726S232.672,462.43,208.5,437.9Z" transform="translate(-107.481 -313.117)"></path><path class="r" d="M272.005,811.887s-2.149-6.446.478-17.905c4.036-17.613,1.194-28.648,1.194-28.648l11.459.716-.58,16.021a8.127,8.127,0,0,0,2.737,6.374c3.325,2.944,9.024,7.85,14.316,11.741,8.117,5.972,11.7,5.972,11.7,5.972s10.265-.238,7.162,7.162c0,0-6.446,3.1-16.711,2.626S279.167,815.229,272.005,811.887Z" transform="translate(-125.269 -408.5)"></path><path class="l" d="M183.645,761.333l-2.626,21.486s-7.134,21.4-5.634,31.63a5.188,5.188,0,0,0,3.534,4.168c3.653,1.192,11.1,2.344,22.632-1.659,0,0,5.968-4.058-2.865-12.892,0,0-7.878-11.459-7.4-21.008a130.471,130.471,0,0,1,3.342-21.009Z" transform="translate(-98.024 -407.365)"></path><path class="c" d="M264.088,702.543c18.621-121.516-11.22-166.876-11.22-166.876l-56.58,10.266s-.478,53.715-18.621,154.7c0,0,8.833,9.788,23.4,1.91,0,0,16.95-92.63,30.8-108.863,0,0,14.8-.716,10.027,108.385,0,0,3.089,3.582,10.743,3.582C255.255,705.647,263.621,705.593,264.088,702.543Z" transform="translate(-98.731 -343.322)"></path><path class="s" d="M163.5,450.923s8.953,49.955,20.949,60.7l12.175,8.952s41.54-2.149,51.566-12c0,0,2.865-4.655,1.612-9.49s-10.564-33.482-10.564-33.482,3.771-14.934-22.011-32.122" transform="translate(-94.71 -314.322)"></path><path class="t" d="M227.5,361.457a11.879,11.879,0,1,1-3.914,2.641" transform="translate(-110.796 -293.623)"></path><g transform="translate(147.214 87.302)"><path class="f" d="M273.2,406.2l51.09-17.189,50.611,2.865s-5.729,21.486-1.432,64.935l-37.242,34.378-50.614-10.5-9.55-48.7,22.436-6.685H274.629Z" transform="translate(-273.057 -389.002)"></path><g transform="translate(-0.284 0.194)"><g class="u"><g transform="translate(-21.486 14.085)"><path class="v" d="M245.343,411.7l80.065,8.852s-1.789,58.293,5.85,93.147l-72.934-11.691Z" transform="translate(-244 -410.333)"></path></g></g></g><path class="a" d="M273,406.189,324.089,389l50.612,2.865s-5.73,21.486-1.433,64.936l-37.242,34.378-50.612-10.5-9.549-48.7,21.009,1.91-22.441-8.595Z" transform="translate(-273 -389)"></path></g><g transform="translate(215.593 158.36)"><path class="r" d="M374.58,508.831l-6.106,5.716s3.242,4.311,10.642.491c0,0,5.252-1.074,5.491-4.3,0,0,3.461-1.074,3.1-4.059a3.887,3.887,0,0,0,2.746-4.059l2.381-3.995a3.127,3.127,0,0,0-.573-3.911c-2.116-1.934-5.361-5-6.225-6.418,0,0-2.984-1.074-1.194,4.417a9.325,9.325,0,0,0,2.627,4.417l-1.194,1.193" transform="translate(-368.474 -488.215)"></path><path class="r" d="M389.938,502.823s-5.006-7.509-11.908-8.421a1.609,1.609,0,0,0-1.387.468c-.373.4-.612,1.089-.072,2.22,0,0-2.631.176-2.33,2.1a2.244,2.244,0,0,0,1.05,1.51c1.71,1.091,6.374,4.246,7.248,6.771" transform="translate(-370.104 -489.966)"></path><path class="r" d="M379.472,512.211c-1.5-2.261-5.689-4.893-7.387-5.9a1.95,1.95,0,0,0-2.1.024,1.746,1.746,0,0,0-.534,2.169,1.977,1.977,0,0,0,.645.938c1.289,1.061,5.283,4.4,6.279,6" transform="translate(-368.71 -493.265)"></path><line class="w" y1="1.671" x2="1.671" transform="translate(9.687 15.961)"></line><path class="r" d="M375.633,518.333a3.181,3.181,0,0,0-.238,2.865" transform="translate(-370.362 -496.762)"></path><path class="r" d="M377.5,498.167s6.565,1.91,9.072,7.52" transform="translate(-371.036 -491.039)"></path></g><path class="l" d="M292.333,457.181s27.216-2.626,35.571-8.833c0,0,4.3-8.833,9.311-11.221s4.059-12.414,10.265-13.13c0,0,1.91-.238,1.432,2.149s-5.73,10.982-3.819,14.563c1.606,3.008,19.755-3.093,27.335-.711a1.415,1.415,0,0,1-.261,2.751c-5.475.676-15.905,2.226-15.376,4.168.716,2.626,18.144-1.2,18.144,2.626s-9.072.238-17.666,3.342c0,0,15.175,1.385,15.518,5.491.238,2.865-10.982-1.91-17.428,0,0,0,6.344,2.187,10.446,6.144a2.1,2.1,0,0,1,.637,1.8c-.112.765-1.163,1.217-2.727.177-2.149-1.432-4.536-3.581-15.04-4.3S331.963,461,331.963,461l-36.288,9.787Z" transform="translate(-131.273 -311.629)"></path><path class="x" d="M199.417,281.821s18.144-1.909,12.414,24.351Z" transform="translate(-104.903 -271.273)"></path><path class="r" d="M172.635,408.7l4.834,11.1s-1.253,5.55-15.219,14.5c0,0,25.246,10.564,43.509,5.551s12.533-14.145,12.533-14.145l-29.9-9.669-3.939-10.206Z" transform="translate(-94.356 -306.475)"></path><path class="l" d="M180.267,292.011s8.474,26.526,14.094,39.126a28.139,28.139,0,0,1,1.314,20c-2.7,8.447-9.983,18.116-28.3,23-21.486,5.73-33.841-2.507-38.675-6.983-2.393-2.215-4.857-4.346-7.336-6.464-10.763-9.2-33.846-33.382-14.627-58.651C132.52,268.137,174.537,276.732,180.267,292.011Z" transform="translate(-76.502 -270.361)"></path><path class="x" d="M92.434,321.879s-5.73-4.775-16.233.477a19.334,19.334,0,0,0-4.99,4.99,20.672,20.672,0,0,0-3.718,13.184,7.139,7.139,0,0,0,.891,1.34c1.635,2.195,4.95,6.27,4.95,6.27s2.865,7.162,6.207,7.64,15.095,1.289,17.189-13.37a38.306,38.306,0,0,0,.087-12.022C95.64,323.711,92.434,321.879,92.434,321.879Z" transform="translate(-67.452 -282.086)"></path><path class="y" d="M108.5,349.833" transform="translate(-79.101 -290.583)"></path><path class="g" d="M124.8,280.638s17.667-18.144,44.882-12.414c0,0,17.189,5.252,5.252,28.171l-9.549,5.252s5.252-9.549,1.432-16.711c0,0-3.82,16.234-12.414,20.054l-27.693,13.846s11.937-16.711,4.775-26.738a141.847,141.847,0,0,0-8.594,54.909l-5.253,7.639s-17.666-10.5-21.486-31.513S113.822,280.16,124.8,280.638Z" transform="translate(-75.47 -267.105)"></path><path class="z" d="M171.525,444.07a116.5,116.5,0,0,0,41.351,17.962s25.556,2.661,47.321-2.1l5.205,17.3s-32.194,12.069-56.191,6.1c-16.379-4.071-38.061-14.893-48.79-22.174a10.582,10.582,0,0,1-3.323-14.252h0a10.086,10.086,0,0,1,13.9-3.191Q171.268,443.886,171.525,444.07Z" transform="translate(-92.465 -316.79)"></path><path class="y" d="M327,821.667" transform="translate(-141.111 -424.487)"></path><path class="aa" d="M270.225,813.333s-.955,7.4.716,12.653c0,0,4.536,3.1,23.158,3.342,0,0,21.008,2.626,26.021-2.388,0,0,4.3-7.639-8.356-7.162,0,0-.238,9.072-25.544-1.432C273.8,813.188,270.225,813.333,270.225,813.333Z" transform="translate(-124.922 -422.122)"></path><path class="aa" d="M173.753,821.906s.716,6.924,17.9,4.775c0,0,8.356-1.671,7.64-5.013,0,0,6.207,5.729,4.059,11.459,0,0-3.88,5.3-24.112,3.581C168.024,835.752,173.753,821.906,173.753,821.906Z" transform="translate(-97.205 -424.488)"></path><g transform="translate(69.148 36.213)"><path class="y" d="M170.207,317.667s5.73,9.071-6.207,16.233" transform="translate(-164 -317.667)"></path><ellipse class="ab" cx="1.91" cy="2.626" rx="1.91" ry="2.626" transform="translate(9.725 15.846) rotate(-19.879)"></ellipse><ellipse class="ab" cx="1.77" cy="2.434" rx="1.77" ry="2.434" transform="translate(33.729 5.942) rotate(-19.879)"></ellipse><path class="ac" d="M203.667,341.333s1.432,3.82,3.581,4.775" transform="translate(-175.257 -324.384)"></path><path class="ac" d="M206.333,348.848s10.027-4.774,5.73,4.537" transform="translate(-176.014 -326.169)"></path><path class="f" d="M199.132,372.626s-21.009-1.672-18.86,8.355,17.428,1.432,17.428,1.432S196.984,376.684,199.132,372.626Z" transform="translate(-168.574 -333.234)"></path></g><g transform="translate(44.558 28.788)"><g transform="translate(0 0)"><g transform="translate(0 30.124)"><path class="c" d="M131.1,369.634a1.433,1.433,0,0,1-.959-2.5l19.337-17.427a1.432,1.432,0,0,1,1.917,2.128l-19.338,17.427A1.425,1.425,0,0,1,131.1,369.634Z" transform="translate(-129.667 -349.361)"></path></g><g transform="translate(49.279)"><path class="c" d="M210.578,334.318a5.484,5.484,0,0,1-4.919-3.055l-6.8-13.783a3.7,3.7,0,0,1,1.677-4.951c.08-.039.161-.075.243-.109l11.889-4.844a3.7,3.7,0,0,1,4.817,2.028l.012.03,5.576,14.022a5.448,5.448,0,0,1-2.941,7.065l-7.406,3.157A5.465,5.465,0,0,1,210.578,334.318Zm3.484-24.153a.828.828,0,0,0-.314.062l-11.889,4.844a.832.832,0,0,0-.454,1.085c.007.019.016.036.024.055l6.8,13.783a2.614,2.614,0,0,0,3.371,1.248h0l7.406-3.156a2.6,2.6,0,0,0,1.405-3.373l-5.576-14.023a.835.835,0,0,0-.773-.525Z" transform="translate(-198.472 -307.301)"></path></g><g transform="translate(14.294 11.065)"><path class="c" d="M165.821,353.278a8.121,8.121,0,0,1-6.745-3.581l-8.824-13.159a3.694,3.694,0,0,1,1.676-5.482l19.7-8.028a3.685,3.685,0,0,1,4.668,1.705l6.292,11.989a8.093,8.093,0,0,1-3.409,10.926c-.067.036-.135.07-.2.1h0l-9.629,4.7A8.028,8.028,0,0,1,165.821,353.278Zm7.206-27.657a.852.852,0,0,0-.316.062l-19.7,8.028a.831.831,0,0,0-.457,1.083.868.868,0,0,0,.079.15l8.824,13.158a5.248,5.248,0,0,0,6.638,1.786l9.628-4.706a5.228,5.228,0,0,0,2.4-6.993c-.022-.045-.044-.09-.068-.134l-6.292-11.989A.828.828,0,0,0,173.027,325.621Zm5.321,20.85" transform="translate(-149.625 -322.75)"></path></g><g transform="translate(42.734 16.019)"><path class="c" d="M190.768,336.829a1.432,1.432,0,0,1-.869-2.571c.215-.167,5.41-4.077,11.248-4.584a1.433,1.433,0,1,1,.257,2.854h-.009c-5,.435-9.715,3.975-9.761,4.011A1.434,1.434,0,0,1,190.768,336.829Z" transform="translate(-189.335 -329.668)"></path></g></g></g><g transform="translate(38.112 76.779)"><path class="l" d="M131.111,377.012s-13.393-8.109-9.848,3.76c3.581,12,12.713,11.1,13.966,7.162" transform="translate(-120.666 -374.308)"></path><path class="t" d="M133.671,392.624a11.879,11.879,0,1,1-3.914,2.641" transform="translate(-122.278 -379.248)"></path></g><g transform="translate(146.736 41.346)"><path class="v" d="M272.333,376.468s36.288-4.775,59.684-18.144c1.495-.854,44.4,21.486,44.4,21.486L327.72,401.3S305.756,402.728,272.333,376.468Z" transform="translate(-272.333 -334.331)"></path><path class="f" d="M294.166,349.185l62.549-24.351s5.252,23.4,45.837,34.855l-56.819,21.486S308.968,383.085,294.166,349.185Z" transform="translate(-278.529 -324.834)"></path></g></g><g transform="translate(-121.428 283.286)"><path class="f" d="M433.895,411.908l42.915-24.1s-5.068,38.6,38.58,36.42L487.544,463.8S450.8,460.978,433.895,411.908Z" transform="translate(-433.895 -387.806)"></path><path class="v" d="M534.039,473.157,551,430.934s5.655,5.953,5.27,11.746Z" transform="translate(-474.746 -405.399)"></path></g><g transform="translate(-65.638 61.699)"><g transform="translate(518.433 147.421)"><path class="ad" d="M631.752,344.455l13.612-12.7,91.792,8.816Z" transform="translate(-607.318 -331.75)"></path><path class="v" d="M631.5,344.149l10.471,29.3L735.859,340Z" transform="translate(-607.418 -331.444)"></path><path class="ad" d="M636.238,349.334,614.25,374.225,744.434,340Z" transform="translate(-614.25 -331.444)"></path></g><g transform="translate(0 0)"><path class="ae" d="M362.617,363.285s287.31,15.159,362.105-92.445c11.131-13.589,3.043-47.915-14.642-58.921s-43.956,3.413-56.1,14.9c-37.907,35.878,27.07,160.521,229.86,160.521" transform="translate(-362.617 -207.989)"></path></g></g><g transform="translate(-92.083 390.002)"><path class="c" d="M594.688,510.692,620,507.2l8.514,22.73-12.5,20.558-30.943-18.119Z" transform="translate(-580.962 -501.069)"></path><path class="f" d="M590.089,527.595l15.161-28.846L634.633,515.8l-18.04,27.731Z" transform="translate(-582.341 -498.749)"></path><path class="e" d="M579.408,535.8l13.726-23.782,7.972,25.606,25.851-6.369L613.749,555.2Z" transform="translate(-579.408 -502.392)"></path><g transform="translate(21.693 11.805)"><path class="h" d="M617.341,526.821a4.874,4.874,0,0,1-1.629.366,2.756,2.756,0,0,1-2.611-1.392,3.293,3.293,0,0,1-.435-1.807,4.723,4.723,0,0,1,.536-2.077,6.142,6.142,0,0,1,1.918-2.183,5.41,5.41,0,0,1,2.555-1.075,3.766,3.766,0,0,1,2.172.312,2.885,2.885,0,0,1,1.125,1.022,3.448,3.448,0,0,1,.517,1.636l.546-.666a.672.672,0,0,1,.825-.174l.187.1a.671.671,0,0,1,.3.9.649.649,0,0,1-.078.12l-3.3,4.062q-.8.983-.858,1.1a.551.551,0,0,0-.026.448.618.618,0,0,0,.313.352,2.361,2.361,0,0,0,1.339.072,4.935,4.935,0,0,0,2.282-.967,5.46,5.46,0,0,0,1.636-1.92,5.292,5.292,0,0,0-.5-5.65,7.128,7.128,0,0,0-2.6-2.186,7.517,7.517,0,0,0-3.806-.85,6.618,6.618,0,0,0-3.622,1.271,8.283,8.283,0,0,0-2.6,3.028,7.112,7.112,0,0,0-.852,3.752,5.611,5.611,0,0,0,1.378,3.295,10.134,10.134,0,0,0,3.179,2.454,8.67,8.67,0,0,0,3.811,1.066,6.349,6.349,0,0,0,2.65-.48.679.679,0,0,1,.588,0h0a.671.671,0,0,1-.032,1.216,8.646,8.646,0,0,1-1.071.345,8.274,8.274,0,0,1-3.016.178,10.522,10.522,0,0,1-3.5-1.151,12.4,12.4,0,0,1-3-2.089,7.64,7.64,0,0,1-1.83-2.631,6.713,6.713,0,0,1-.512-2.873,8.8,8.8,0,0,1,.973-3.554,9.855,9.855,0,0,1,2.651-3.264,8.25,8.25,0,0,1,4.393-1.881A8.725,8.725,0,0,1,622.2,516.1a8.475,8.475,0,0,1,3.1,2.584,6.582,6.582,0,0,1,1.244,3.631,6.7,6.7,0,0,1-.743,3.352,6.582,6.582,0,0,1-3.671,3.24,4.7,4.7,0,0,1-3.945,0,2.241,2.241,0,0,1-.8-.612,1.191,1.191,0,0,1-.251-.725A2.23,2.23,0,0,1,617.341,526.821Zm-2.727-4.075a2.806,2.806,0,0,0-.341,1.938,1.7,1.7,0,0,0,.87,1.2,2.188,2.188,0,0,0,1.064.209,3.758,3.758,0,0,0,1.332-.309,4.659,4.659,0,0,0,1.4-.949,5.34,5.34,0,0,0,1.1-1.46,2.69,2.69,0,0,0,.313-1.932,1.887,1.887,0,0,0-1-1.251,2.108,2.108,0,0,0-1.08-.227,3.315,3.315,0,0,0-1.282.384,5.19,5.19,0,0,0-1.37,1.039A5.613,5.613,0,0,0,614.614,522.746Z" transform="translate(-609.314 -515.023)"></path></g></g><g transform="translate(-39.367 292.018)"><path class="c" d="M616.5,423.383l-5.865,5.071,30.788,39.7s1.28-5.154,6.11-4.695Z" transform="translate(-605.887 -417.004)"></path><path class="g" d="M606.309,422.2c1.574,2.047,3.925,5.257,3.925,5.257l5.9-4.514-3.982-5.138a2.1,2.1,0,0,0-2.894-.41l-2.512,1.834a2.1,2.1,0,0,0-.468,2.927Z" transform="translate(-605.877 -416.99)"></path><path class="e" d="M614.8,421.013l4.69,6.109a6.626,6.626,0,0,0-6.16,4.808l-4.989-6.373S609.792,420.339,614.8,421.013Z" transform="translate(-605.882 -416.998)"></path><path class="e" d="M648.222,472.786l-6.731-4.545a5.335,5.335,0,0,1,5.881-4.724c.077.008.154.018.229.03l2.43,6.535Z" transform="translate(-605.955 -417.092)"></path><path class="aa" d="M650.177,469.647a2.548,2.548,0,0,0-3.252,2.589l4.932,3.068Z" transform="translate(-605.967 -417.106)"></path></g><g transform="translate(-39.882 360.87)"><ellipse class="f" cx="28.838" cy="28.838" rx="28.838" ry="28.838"></ellipse><rect class="i" width="23.284" height="8.091" transform="translate(32.065 43.978) rotate(-85.819)"></rect><rect class="g" width="20.287" height="8.091" transform="translate(22.037 43.212) rotate(-85.819)"></rect><rect class="i" width="15.692" height="8.091" transform="translate(11.952 42.452) rotate(-85.819)"></rect><rect class="h" width="1.063" height="29.554" transform="translate(11.487 45.768) rotate(-85.819)"></rect><path class="h" d="M563.75,581.739l-1.541,5.668-1.387-1.842-6.647,6.922-2.753-3.175-13.72,9.66-1.885-2.719,15.67-10.921,2.8,3.292,5.031-4.852-1.563-1.741Z" transform="translate(-520.107 -573.618)"></path></g><g transform="translate(-168.299 360.896)"><path class="e" d="M405.925,563.419a28.092,28.092,0,1,1-25.346,30.592l27.969-2.623Z" transform="translate(-368.596 -556.643)"></path><path class="g" d="M400.6,551.664a27.976,27.976,0,0,0-16.791,7.663l18.133,16.839Z" transform="translate(-369.978 -551.664)"></path><path class="j" d="M364.385,570.223a27.975,27.975,0,0,0-4.632,18.263l25.125-2.356Z" transform="translate(-359.626 -559.61)"></path></g><g transform="translate(483.998 343.177)"><path class="i" d="M1502.779,478.756l-10.217-10.381c.166-.165,1.076-1.049,2.69-2.374l9.242,11.256C1503.382,478.171,1502.784,478.751,1502.779,478.756Zm83.422-.035c-.7-.5-1.408-.99-2.117-1.453l7.952-12.2c.9.587,1.806,1.207,2.686,1.842Zm-57.376-15.866-2.752-14.3c1.052-.2,2.12-.385,3.173-.542l2.149,14.405c-.853.13-1.718.278-2.57.442Zm30.69-.451c-.842-.1-1.7-.188-2.558-.251l1.09-14.525c1.08.081,2.171.189,3.239.32Z" transform="translate(-1492.562 -447.628)"></path></g><g transform="translate(489.654 370.84)"><path class="b" d="M551.436,929.4a8.374,8.374,0,0,0-.108-1.261q-.494-4.3-5.147-7.912a42.029,42.029,0,0,0-13.9-6.606,42.019,42.019,0,0,0,1.278-15.49q-.9-6.573-5.055-8.971t-10.33.154a42.714,42.714,0,0,0-12.744,8.807,42.98,42.98,0,0,0-12.81-8.813q-6.146-2.518-10.39-.075-4.147,2.5-5.069,9.114a43.272,43.272,0,0,0,1.141,15.534,54.46,54.46,0,0,0-6.741,2.543,26.6,26.6,0,0,0-9.573,6.563,9.9,9.9,0,0,0-2.764,6.539q.01,4.9,5.215,8.935a42.026,42.026,0,0,0,13.9,6.605,44.187,44.187,0,0,0-1.232,15.516q.856,6.548,5.01,8.945t10.3-.108a42,42,0,0,0,12.717-8.758,41.436,41.436,0,0,0,12.61,8.5q6.076,2.411,10.263.065,4.09-2.406,5.033-8.943a43.33,43.33,0,0,0-1.008-15.322C543.841,941.565,551.436,935.916,551.436,929.4Zm-88.622,0c0-7.506,17.116-15.542,42.6-15.542S548,921.894,548,929.4s-17.115,15.541-42.6,15.541S462.815,936.905,462.815,929.4ZM518.433,893q4.937-2.3,8.124-.461h0q3.186,1.841,3.689,7.217a39.021,39.021,0,0,1-1.4,12.908q-2.96-.675-6.171-1.243t-6.643-.873q-2.035-2.724-4.011-5.213a54.129,54.129,0,0,0-4.1-4.619A39.68,39.68,0,0,1,518.433,893ZM508.227,906.56q1.4,1.707,2.827,3.692a27.375,27.375,0,0,0-2.834-.22q-1.4-.034-2.849.028-1.395-.032-2.85.029t-2.812.18h0q1.36-1.913,2.813-3.65t2.843-3.252Q506.83,904.852,508.227,906.56Zm-27.784-6.643q.578-5.461,3.74-7.37,3.258-1.854,8.2.416a38.09,38.09,0,0,1,10.5,7.8,58.462,58.462,0,0,0-4.15,4.622q-2.024,2.5-3.987,5.232-3.573.387-6.805.966t-6.128,1.356A37.446,37.446,0,0,1,480.443,899.917Zm11.715,65.816q-4.908,2.25-8.1.411h0q-3.192-1.839-3.692-7.216a39.04,39.04,0,0,1,1.4-12.908q2.958.677,6.124,1.217t6.443.887q1.98,2.819,4.078,5.318t4.163,4.723A39.027,39.027,0,0,1,492.158,965.732Zm10.083-13.567q-1.492-1.763-2.826-3.692,1.4.033,2.842.1t2.995.057q1.4.033,2.85-.028l2.9-.125q-1.461,1.863-2.94,3.645t-2.926,3.4Q503.734,953.929,502.241,952.166Zm27.494,6.474q-.521,5.364-3.685,7.274h0q-3.107,1.812-8.023-.382a37.361,37.361,0,0,1-10.3-7.365q2.086-2.273,4.185-4.8t4.117-5.349q3.264-.3,6.423-.864c1.337-.237,2.635-.505,3.9-.8q1.1-.226,2.165-.477A40.034,40.034,0,0,1,529.735,958.64Z" transform="translate(-459.228 -887.996)"></path><g transform="translate(25.92 32.098)"><path class="b" d="M514.88,950.142c0,2.878-1.947,4.909-5.5,4.909h-1.545v4.677a.3.3,0,0,1-.318.317H504.87a.3.3,0,0,1-.317-.317V945.551a.3.3,0,0,1,.317-.317h4.508C512.933,945.233,514.88,947.243,514.88,950.142Zm-3.132,0c0-1.565-1.269-2.01-2.433-2.01h-1.481v4.021h1.481C510.478,952.153,511.748,951.708,511.748,950.142Z" transform="translate(-504.553 -944.599)"></path><path class="b" d="M526.552,944.123h2.539a.3.3,0,0,1,.318.318v14.813a.3.3,0,0,1-.318.317h-2.539a.3.3,0,0,1-.317-.317V944.441A.3.3,0,0,1,526.552,944.123Z" transform="translate(-513.836 -944.123)"></path><path class="b" d="M546.493,953.163V962.9a.3.3,0,0,1-.317.318h-2.159a.312.312,0,0,1-.317-.318l-.127-.889a3.636,3.636,0,0,1-2.962,1.355,5.071,5.071,0,0,1-5.015-5.312,5.124,5.124,0,0,1,5.015-5.416,3.658,3.658,0,0,1,2.984,1.481l.106-.952a.312.312,0,0,1,.317-.317h2.159A.3.3,0,0,1,546.493,953.163Zm-3.174,4.867a2.344,2.344,0,1,0-4.677,0,2.3,2.3,0,0,0,2.349,2.433A2.273,2.273,0,0,0,543.32,958.03Z" transform="translate(-517.843 -947.767)"></path><path class="b" d="M569.232,953.364l-5.481,13.776a.387.387,0,0,1-.381.254h-2.476c-.233,0-.381-.127-.255-.36l1.5-3.639-4-10.03c-.084-.233.021-.36.254-.36h2.56a.386.386,0,0,1,.381.253l2.328,6.391,2.328-6.391a.388.388,0,0,1,.381-.253h2.6C569.211,953,569.317,953.131,569.232,953.364Z" transform="translate(-527.484 -947.925)"></path></g></g></g></svg> 